<svg width="45" height="45" viewBox="0 0 176 64" fill="none" xmlns="http://www.w3.org/2000/svg">
<g clip-path="url(#clip0_11_2942)">
<path d="M56.4671 33.5846C58.4956 33.5846 60.1401 31.9402 60.1401 29.9117C60.1401 27.8832 58.4956 26.2388 56.4671 26.2388C54.4386 26.2388 52.7942 27.8832 52.7942 29.9117C52.7942 31.9402 54.4386 33.5846 56.4671 33.5846Z" fill="#171A88"/>
<path d="M30.0366 12.375C26.5681 12.375 23.1776 13.4035 20.2936 15.3305C17.4097 17.2575 15.162 19.9963 13.8347 23.2008C12.5074 26.4052 12.1601 29.9313 12.8367 33.3331C13.5134 36.7349 15.1836 39.8596 17.6362 42.3122C20.0887 44.7648 23.2135 46.435 26.6153 47.1116C30.0171 47.7883 33.5432 47.441 36.7476 46.1137C39.9521 44.7864 42.6909 42.5386 44.6179 39.6547C46.5449 36.7708 47.5734 33.3803 47.5734 29.9118C47.5734 27.6088 47.1198 25.3284 46.2385 23.2008C45.3572 21.0731 44.0654 19.1399 42.437 17.5114C40.8085 15.883 38.8753 14.5912 36.7476 13.7099C34.62 12.8286 32.3395 12.375 30.0366 12.375ZM30.0366 41.7025C27.7043 41.7025 25.4245 41.0109 23.4853 39.7152C21.5462 38.4195 20.0348 36.5778 19.1423 34.4231C18.2498 32.2683 18.0164 29.8974 18.4715 27.61C18.9265 25.3225 20.0497 23.2215 21.6989 21.5724C23.3481 19.9233 25.4493 18.8004 27.7367 18.3455C30.0242 17.8906 32.3952 18.1243 34.5498 19.0169C36.7044 19.9096 38.546 21.4211 39.8416 23.3604C41.1371 25.2997 41.8286 27.5796 41.8284 29.9118C41.8284 31.4603 41.5233 32.9936 40.9307 34.4242C40.3381 35.8547 39.4695 37.1546 38.3746 38.2495C37.2796 39.3444 35.9797 40.2128 34.549 40.8053C33.1184 41.3978 31.5851 41.7027 30.0366 41.7025Z" fill="#FFB61E"/>
<path d="M3.67293 33.9025C5.70143 33.9025 7.34586 32.2581 7.34586 30.2296C7.34586 28.2011 5.70143 26.5566 3.67293 26.5566C1.64443 26.5566 0 28.2011 0 30.2296C0 32.2581 1.64443 33.9025 3.67293 33.9025Z" fill="#171A88"/>
<path d="M30.2296 60.1403C32.2581 60.1403 33.9025 58.4959 33.9025 56.4674C33.9025 54.4389 32.2581 52.7944 30.2296 52.7944C28.2011 52.7944 26.5566 54.4389 26.5566 56.4674C26.5566 58.4959 28.2011 60.1403 30.2296 60.1403Z" fill="#171A88"/>
<path d="M29.9117 7.34586C31.9402 7.34586 33.5846 5.70143 33.5846 3.67293C33.5846 1.64443 31.9402 0 29.9117 0C27.8832 0 26.2388 1.64443 26.2388 3.67293C26.2388 5.70143 27.8832 7.34586 29.9117 7.34586Z" fill="#171A88"/>
<path d="M48.8482 52.2966C50.8767 52.2966 52.5211 50.6522 52.5211 48.6237C52.5211 46.5951 50.8767 44.9507 48.8482 44.9507C46.8197 44.9507 45.1753 46.5951 45.1753 48.6237C45.1753 50.6522 46.8197 52.2966 48.8482 52.2966Z" fill="#FFB61E"/>
<path d="M11.2921 15.1906C13.3206 15.1906 14.965 13.5462 14.965 11.5177C14.965 9.48915 13.3206 7.84473 11.2921 7.84473C9.26356 7.84473 7.61914 9.48915 7.61914 11.5177C7.61914 13.5462 9.26356 15.1906 11.2921 15.1906Z" fill="#171A88"/>
<path d="M11.5177 52.5211C13.5462 52.5211 15.1906 50.8767 15.1906 48.8482C15.1906 46.8197 13.5462 45.1753 11.5177 45.1753C9.48915 45.1753 7.84473 46.8197 7.84473 48.8482C7.84473 50.8767 9.48915 52.5211 11.5177 52.5211Z" fill="#171A88"/>
<path d="M48.6236 14.965C50.6521 14.965 52.2966 13.3206 52.2966 11.2921C52.2966 9.26357 50.6521 7.61914 48.6236 7.61914C46.5951 7.61914 44.9507 9.26357 44.9507 11.2921C44.9507 13.3206 46.5951 14.965 48.6236 14.965Z" fill="#171A88"/>
<path d="M101.168 48.4737H95.4798V38.5285C93.6687 39.9942 91.298 40.8556 88.3696 40.8556C82.8958 40.8556 77.8059 36.2431 77.8059 29.4793C77.8059 22.7154 82.8927 18.0552 88.3696 18.0552C91.301 18.0552 93.6718 18.9175 95.4798 20.4259V18.6992H101.168V48.4737ZM95.4798 29.4793C95.4798 25.5128 92.4194 23.013 89.3589 23.013C85.9054 23.013 83.3234 25.5128 83.3234 29.4793C83.3234 33.4457 85.9105 35.9018 89.3589 35.9018C92.4153 35.8988 95.4798 33.4417 95.4798 29.4762V29.4793Z" fill="#171A88"/>
<path d="M126.857 40.2096H121.169V38.2696C119.488 39.9506 117.246 40.8557 114.401 40.8557C109.229 40.8557 105.781 37.1492 105.781 31.8033V18.7002H111.469V30.5966C111.469 33.6144 113.195 35.6398 115.822 35.6398C119.055 35.6398 121.167 33.4844 121.167 28.2249V18.6992H126.855L126.857 40.2096Z" fill="#171A88"/>
<path d="M153.751 40.2096H148.063V38.5285C146.253 39.9942 143.881 40.8556 140.953 40.8556C135.478 40.8556 130.389 36.2431 130.389 29.4792C130.389 22.7154 135.476 18.0552 140.953 18.0552C143.883 18.0552 146.255 18.9175 148.063 20.4259V18.6992H153.751V40.2096ZM148.063 29.4762C148.063 25.5097 145.002 23.01 141.942 23.01C138.488 23.01 135.906 25.5097 135.906 29.4762C135.906 33.4427 138.494 35.8988 141.942 35.8988C145 35.8988 148.061 33.4417 148.061 29.4762H148.063Z" fill="#171A88"/>
<path d="M158.47 40.2099V9.17285H164.158V40.2099H158.47Z" fill="#171A88"/>
<path d="M168.779 40.2095V18.6991H174.467V40.2095H168.779ZM174.163 14.4879C173.658 14.992 173.016 15.3354 172.317 15.4745C171.618 15.6136 170.893 15.5422 170.234 15.2693C169.575 14.9965 169.012 14.5344 168.616 13.9416C168.22 13.3488 168.009 12.6518 168.009 11.9389C168.009 11.2259 168.22 10.5289 168.616 9.93609C169.012 9.34327 169.575 8.88123 170.234 8.60838C170.893 8.33554 171.618 8.26416 172.317 8.40326C173.016 8.54236 173.658 8.88569 174.163 9.38985C174.838 10.0663 175.217 10.9833 175.217 11.9393C175.217 12.8953 174.837 13.812 174.161 14.4879H174.163Z" fill="#171A88"/>
<path d="M138.674 58.6643C139.408 58.2265 139.952 57.5301 140.198 56.712L141.22 57.0065C140.928 58.0365 140.308 58.8579 139.36 59.4708C138.389 60.0869 137.259 60.4047 136.11 60.3849C134.52 60.3849 133.169 59.8476 132.057 58.7729C130.945 57.6983 130.389 56.2979 130.388 54.5718C130.388 52.8789 130.948 51.4866 132.068 50.395C133.021 49.4767 134.258 48.9092 135.576 48.7854C136.894 48.6616 138.215 48.9888 139.322 49.7135C140.238 50.3102 140.917 51.2085 141.24 52.2528L140.196 52.5931C139.959 51.7434 139.417 51.0114 138.672 50.5383C137.909 50.0447 137.016 49.7881 136.107 49.8008C135.497 49.7895 134.892 49.9024 134.328 50.1326C133.764 50.3627 133.253 50.7054 132.826 51.1396C131.924 52.0334 131.474 53.1762 131.475 54.5677C131.475 56.006 131.921 57.164 132.815 58.0416C133.708 58.9192 134.805 59.3594 136.107 59.3621C137.011 59.3775 137.902 59.1355 138.674 58.6643Z" fill="#171A88"/>
<path d="M152.482 50.4336C153.603 51.5319 154.163 52.913 154.162 54.5768C154.162 56.2406 153.602 57.6257 152.482 58.7322C151.362 59.8373 149.977 60.3899 148.328 60.3899C146.679 60.3899 145.294 59.8373 144.172 58.7322C143.052 57.6271 142.492 56.2419 142.492 54.5768C142.493 52.9117 143.053 51.5306 144.172 50.4336C145.293 49.3366 146.678 48.7881 148.328 48.7881C149.977 48.7881 151.362 49.3366 152.482 50.4336ZM151.699 58.0171C152.615 57.1009 153.072 55.9541 153.072 54.5768C153.072 53.1852 152.618 52.0341 151.71 51.1233C150.802 50.2125 149.675 49.7585 148.328 49.7612C146.98 49.7612 145.853 50.2152 144.944 51.1233C144.036 52.0313 143.582 53.1825 143.582 54.5768C143.582 55.9541 144.04 57.1009 144.956 58.0171C145.871 58.9333 146.995 59.3911 148.328 59.3904C149.663 59.3904 150.786 58.9326 151.699 58.0171Z" fill="#171A88"/>
<path d="M162.326 49.015L162.214 50.0602C161.996 50.0247 161.776 50.0094 161.555 50.0145C160.087 50.0145 158.933 50.5404 158.093 51.592C157.254 52.6436 156.833 53.9492 156.831 55.5087V60.1405H155.713V49.0384H156.831V52.1486C157.264 51.2236 157.924 50.4232 158.749 49.8215C159.566 49.2363 160.549 48.9296 161.553 48.947C161.812 48.9432 162.071 48.966 162.326 49.015Z" fill="#171A88"/>
<path d="M173.571 50.3892C174.662 51.4726 175.207 52.8686 175.207 54.5771C175.207 56.3032 174.662 57.7036 173.571 58.7782C172.481 59.8529 171.157 60.3902 169.599 60.3902C168.624 60.4004 167.663 60.1619 166.806 59.6975C165.973 59.2493 165.281 58.577 164.808 57.7564V64.0002H163.691V49.0382H164.808V51.3968C165.281 50.5764 165.973 49.9042 166.806 49.4557C167.663 48.9917 168.624 48.7533 169.599 48.763C171.158 48.7643 172.482 49.3064 173.571 50.3892ZM172.778 58.0743C173.67 57.194 174.117 56.0283 174.118 54.5771C174.118 53.1402 173.667 51.9788 172.767 51.0931C171.866 50.2074 170.765 49.7645 169.464 49.7645C168.222 49.7645 167.136 50.2111 166.205 51.1043C165.274 51.9974 164.809 53.1551 164.809 54.5771C164.809 55.9992 165.271 57.1571 166.194 58.051C166.622 58.4813 167.132 58.8216 167.693 59.0517C168.255 59.2818 168.857 59.3971 169.464 59.3907C170.779 59.3907 171.884 58.9519 172.778 58.0743Z" fill="#171A88"/>
</g>
<defs>
<clipPath id="clip0_11_2942">
<rect width="175.216" height="50" fill="white"/>
</clipPath>
</defs>
</svg>
